<?xml version="1.0" encoding="UTF-8" standalone="no"?>
<!-- Created with Inkscape (http://www.inkscape.org/) -->

<svg
   width="98.217003mm"
   height="98.371643mm"
   viewBox="0 0 98.217003 98.371643"
   version="1.1"
   id="svg1"
   xml:space="preserve"
   inkscape:version="1.3 (0e150ed6c4, 2023-07-21)"
   sodipodi:docname="icons.svg"
   xmlns:inkscape="http://www.inkscape.org/namespaces/inkscape"
   xmlns:sodipodi="http://sodipodi.sourceforge.net/DTD/sodipodi-0.dtd"
   xmlns="http://www.w3.org/2000/svg"
   xmlns:svg="http://www.w3.org/2000/svg"><sodipodi:namedview
     id="namedview1"
     pagecolor="#505050"
     bordercolor="#eeeeee"
     borderopacity="1"
     inkscape:showpageshadow="0"
     inkscape:pageopacity="0"
     inkscape:pagecheckerboard="0"
     inkscape:deskcolor="#505050"
     inkscape:document-units="mm"
     showgrid="true"
     inkscape:zoom="0.67882251"
     inkscape:cx="10231.688"
     inkscape:cy="1837.7411"
     inkscape:window-width="1920"
     inkscape:window-height="1001"
     inkscape:window-x="-9"
     inkscape:window-y="-9"
     inkscape:window-maximized="1"
     inkscape:current-layer="g330"><inkscape:grid
       id="grid1"
       units="mm"
       originx="-9830.4457"
       originy="-1516.5242"
       spacingx="100"
       spacingy="100"
       empcolor="#0099e5"
       empopacity="0.30196078"
       color="#0099e5"
       opacity="0.14901961"
       empspacing="5"
       dotted="false"
       gridanglex="30"
       gridanglez="30"
       visible="true" /></sodipodi:namedview><defs
     id="defs1" /><g
     inkscape:label="Layer 1"
     inkscape:groupmode="layer"
     id="layer1"
     transform="translate(-2600.9721,-401.24702)"><g
       id="g330"
       inkscape:export-filename="logo.svg"
       inkscape:export-xdpi="132.15024"
       inkscape:export-ydpi="132.15024"><path
         style="fill:#496b87;fill-opacity:1;stroke:none;stroke-width:3;stroke-linecap:round;stroke-linejoin:round;stroke-dasharray:none;stroke-opacity:1"
         d="m 2695.9905,467.63868 -39.8367,19.88947 -52.8549,-45.01346 c 0,0 -0.8268,-7.41164 -0.8268,-11.11747 0,-3.70582 0.8268,-11.11748 0.8268,-11.11748 l 36.5163,-17.53273 56.2863,41.87634"
         id="path213"
         sodipodi:nodetypes="ccczccc"
         inkscape:export-filename="logo.svg"
         inkscape:export-xdpi="132.15024"
         inkscape:export-ydpi="132.15024" /><path
         style="fill:none;fill-opacity:1;stroke:#39546a;stroke-width:3;stroke-linecap:round;stroke-linejoin:round;stroke-dasharray:none;stroke-opacity:1"
         d="m 2697.578,467.63868 -41.4242,19.88947 -52.8549,-45.01346 c 0,0 -0.8268,-7.41164 -0.8268,-11.11747 0,-3.70582 0.6099,-10.90822 0.6099,-10.90822 l 36.7332,-17.74199 57.8738,41.87634"
         id="path214"
         sodipodi:nodetypes="ccczccc" /><path
         style="fill:#ffd0d7;fill-opacity:1;stroke:none;stroke-width:3.968;stroke-linecap:round;stroke-linejoin:round;stroke-dasharray:none;stroke-opacity:1"
         d="m 2695.8084,467.14698 -39.6546,18.53336 c 0,0 -0.741,-7.25399 -0.6981,-10.88098 0.043,-3.62699 0.9555,-10.88097 0.9555,-10.88097 l 39.508,-17.93925"
         id="path215"
         sodipodi:nodetypes="cczcc" /><path
         style="fill:none;fill-opacity:1;stroke:#ffd0d7;stroke-width:2.5;stroke-linecap:round;stroke-linejoin:round;stroke-dasharray:none;stroke-opacity:1"
         d="m 2696.3134,467.14698 0.1108,-21.16784 z"
         id="path216"
         sodipodi:nodetypes="ccc" /><path
         style="fill:none;fill-opacity:1;stroke:#39546a;stroke-width:3;stroke-linecap:round;stroke-linejoin:round;stroke-dasharray:none;stroke-opacity:1"
         d="M 2656.411,463.91834 2603.082,420.489"
         id="path217"
         sodipodi:nodetypes="cc" /><path
         style="fill:none;fill-opacity:1;stroke:#ffc4cc;stroke-width:3;stroke-linecap:round;stroke-linejoin:round;stroke-dasharray:none;stroke-opacity:1"
         d="m 2659.0395,471.58529 35.7596,-16.68061"
         id="path218"
         sodipodi:nodetypes="cc" /><path
         d="m 1178.8665,1801.7307 q 0.5014,0 0.5014,-0.5014 v -22.0594 h -12.5338 v -2.3815 h 15.0406 v 25.3183 q 0,2.0054 -2.0055,2.0054 h -3.0081 l -0.376,-2.3814 z m -16.4192,1.128 h -4.3868 v 1.7548 h -2.5068 v -10.2778 h 9.4003 v 9.7764 h -2.5067 z m -6.2669,-24.1902 v -2.3814 h 8.1469 v 2.3814 z m 0,9.0243 v -2.3814 h 8.1469 v 2.3814 z m 10.6537,-2.5067 v -2.3814 h 10.9044 v 2.3814 z m -10.6537,4.6375 h 8.1469 v 2.3814 h -8.1469 z m 18.0486,0.8774 h -4.6375 v 4.7628 h 4.6375 z m 0,8.3976 v -1.2534 h -4.6375 v 2.7574 h -2.1307 v -12.2831 h 8.899 v 10.7791 z m -16.1685,-2.7574 v 4.5121 h 4.3868 v -4.5121 z m -3.6348,-15.5419 h 11.0297 v 2.3814 h -11.0297 z"
         id="text219"
         style="font-size:32.0865px;line-height:0.85;font-family:'Vampire Calligraphy';-inkscape-font-specification:'Vampire Calligraphy';fill:#ffb3bf;stroke-width:0.933569;stroke-linecap:round;stroke-linejoin:round"
         transform="matrix(1.08823,-0.50379315,0.76292188,0.56573076,0,0)"
         aria-label="詞&#10;" /><path
         style="fill:none;fill-opacity:1;stroke:#ffc4cc;stroke-width:3;stroke-linecap:round;stroke-linejoin:round;stroke-dasharray:none;stroke-opacity:1"
         d="m 2659.0395,467.15049 35.7596,-16.68061"
         id="path219"
         sodipodi:nodetypes="cc" /><path
         style="fill:none;fill-opacity:1;stroke:#ffc4cc;stroke-width:3;stroke-linecap:round;stroke-linejoin:round;stroke-dasharray:none;stroke-opacity:1"
         d="m 2659.0395,476.13888 35.7596,-16.6806"
         id="path220"
         sodipodi:nodetypes="cc" /><path
         style="fill:none;fill-opacity:1;stroke:#bf9297;stroke-width:1.26787;stroke-linecap:round;stroke-linejoin:round;stroke-dasharray:none;stroke-opacity:1"
         d="m 2663.4822,469.1336 c 0,0 5.3288,-2.61768 8.0178,-3.57941 2.689,-0.96175 4.5254,-1.45347 4.5254,-1.45347"
         id="path221"
         sodipodi:nodetypes="czc" /><path
         style="fill:none;fill-opacity:1;stroke:#ffc4cc;stroke-width:3;stroke-linecap:round;stroke-linejoin:round;stroke-dasharray:none;stroke-opacity:1"
         d="m 2659.0395,480.5535 35.7596,-16.6806"
         id="path222"
         sodipodi:nodetypes="cc" /><path
         style="fill:none;fill-opacity:1;stroke:#39546a;stroke-width:3;stroke-linecap:round;stroke-linejoin:round;stroke-dasharray:none;stroke-opacity:1"
         d="m 2697.578,467.63868 -41.4242,19.09999 c 0,0 -0.741,-7.25399 -0.6981,-10.88098 0.043,-3.62699 0.9553,-11.93935 0.9553,-11.93935 l 41.278,-19.29499"
         id="path223"
         sodipodi:nodetypes="cczcc" /><path
         style="fill:#c70302;fill-opacity:1;stroke:none;stroke-width:2.091;stroke-linecap:round;stroke-linejoin:round;stroke-dasharray:none;stroke-opacity:1"
         d="m 2665.4904,467.63444 c 0,0 6.1643,5.6113 6.1643,10.33662 0,4.7253 1.6995,10.73666 6.7726,14.97047 3.1651,2.64147 5.9994,3.3893 8.5434,4.27202 2.2924,0.79543 5.6743,2.40512 5.6743,2.40512 0,0 -2.0905,-3.63463 -3.5147,-4.89211 -1.4242,-1.25748 -2.7568,-2.54945 -2.7568,-2.54945 0,0 2.7318,0.0108 5.2061,-0.20504 2.4743,-0.21588 5.5208,-0.65259 5.5208,-0.65259 0,0 -3.8858,-1.79281 -6.9,-2.73485 -1.868,-0.58379 -5.5619,-2.05332 -7.3229,-3.79713 -3.7143,-3.6782 -4.0205,-12.04094 -6.2913,-16.26701 -2.0435,-3.80309 -3.8014,-3.69164 -3.8014,-3.69164 z"
         id="path224"
         sodipodi:nodetypes="csssczczcssscc" /><path
         d="m 1126.3338,1853.8512 q 0.6215,0.9944 -0.7457,0.7458 -2.7345,2.983 -8.5763,4.9717 l -1.3672,-2.983 q 5.8418,-1.7401 8.5763,-4.9718 z m 14.6667,5.096 q -5.8418,-1.3672 -10.0678,-5.3446 l 2.113,-1.9887 q 3.2316,2.9831 9.0734,4.3503 z m -22.7457,-9.9434 v -14.1695 h 6.2146 v -3.8531 h 2.3616 q 0.9944,0.1243 0.1243,0.7458 v 3.1073 h 3.7288 v -3.9774 h 2.3616 q 0.9943,0.1243 0.1243,0.7458 v 3.2316 h 6.2146 v 14.1695 h 3.7288 v 2.3615 h -28.5874 v -2.3615 z m 14.9152,0 h 3.7288 v -5.0961 h -3.7288 z m 0,-7.4576 h 3.7288 v -4.3503 h -3.7288 z m -2.4859,7.4576 v -5.0961 h -3.7288 v 5.0961 z m -3.7288,-7.4576 h 3.7288 v -4.3503 h -3.7288 z m -2.4859,7.4576 v -5.0961 h -3.7288 v 5.0961 z m -3.7288,-7.4576 h 3.7288 v -4.3503 h -3.7288 z"
         id="text225"
         style="font-size:31.8191px;line-height:0.85;font-family:'Vampire Calligraphy';-inkscape-font-specification:'Vampire Calligraphy';fill:#ffb3bf;stroke-width:0.925789;stroke-linecap:round;stroke-linejoin:round"
         transform="matrix(1.0906066,-0.51219467,0.77503635,0.55293129,0,0)"
         aria-label="&#10;典" /></g></g></svg>
